<?xml version="1.0" encoding="UTF-8" standalone="no"?>
<svg xmlns="http://www.w3.org/2000/svg" xmlns:xlink="http://www.w3.org/1999/xlink" width="48" height="48">
  <defs>
    <radialGradient xlink:href="#a" id="e" cx="29.288071" cy="15.720984" r="8.9020796" fx="29.158466" fy="15.755712" gradientUnits="userSpaceOnUse"/>
    <radialGradient id="c" cx="25.0527" cy="39.5928" r="15.7572" fx="25.0527" fy="39.5928" gradientTransform="matrix(1.25 0 0 1.25 53.52055 -13.37211)" gradientUnits="userSpaceOnUse">
      <stop offset="0" stop-color="#777"/>
      <stop offset="1"/>
    </radialGradient>
    <radialGradient xlink:href="#b" id="d" cx="24.714285" cy="38.57143" r="19.714285" fx="24.714285" fy="38.57143" gradientTransform="matrix(1 0 0 .33333 0 25.71429)" gradientUnits="userSpaceOnUse"/>
    <radialGradient xlink:href="#c" id="f" cx="-23.452122" cy="38.602852" r="15.7572" fx="-23.452122" fy="38.602852" gradientTransform="matrix(1.3579 0 0 .41667 55.84561 15.2093)" gradientUnits="userSpaceOnUse"/>
    <linearGradient id="a">
      <stop offset="0" stop-color="#fffcde"/>
      <stop offset=".64485979" stop-color="#f6e76a"/>
      <stop offset="1" stop-color="#ffb738"/>
    </linearGradient>
    <linearGradient id="b">
      <stop offset="0"/>
      <stop offset="1" stop-opacity="0"/>
    </linearGradient>
  </defs>
  <path fill="url(#d)" fill-rule="evenodd" d="M44.42857 38.57143a19.714285 6.5714288 0 1 1-39.42857 0 19.714285 6.5714288 0 1 1 39.42857 0z" color="#000" opacity=".53164557" overflow="visible" style="marker:none"/>
  <path fill="url(#e)" fill-rule="evenodd" stroke="#9c8c0a" stroke-linecap="round" stroke-linejoin="round" stroke-width=".48004404" d="M39.774755 19.008621a8.6620579 8.6620579 0 1 1-17.324115 0 8.6620579 8.6620579 0 1 1 17.324115 0z" color="#000" overflow="visible" style="marker:none" transform="translate(-40.54715 -16.49224) scale(2.08314)"/>
  <path fill="none" stroke="#fff" stroke-linecap="round" stroke-linejoin="round" stroke-width=".50510627" d="M39.774755 19.008621a8.6620579 8.6620579 0 1 1-17.324115 0 8.6620579 8.6620579 0 1 1 17.324115 0z" color="#000" opacity=".67721519" overflow="visible" style="marker:none" transform="translate(-37.33128 -14.52746) scale(1.97978)"/>
  <g transform="matrix(1 0 0 .74952 .353553 7.357569)">
    <path fill="#fff" d="M21.398158 15.321428c0 2.5-1.125 4.5-2.5 4.5s-2.625-2-2.625-4.5 1.125-4.5 2.5-4.5 2.5 2 2.5 4.5h.125zm9.290354 0c0 2.5-1.125 4.5-2.5 4.5s-2.5-2-2.5-4.5 1.125-4.5 2.5-4.5 2.5 2 2.5 4.5z" opacity=".36000001"/>
    <path d="M21.398158 14.696428c0 2.5-1.125 4.5-2.5 4.5s-2.5-2-2.5-4.5 1.125-4.5 2.5-4.5 2.5 2 2.5 4.5zm9.290354 0c0 2.5-1.125 4.5-2.5 4.5s-2.5-2-2.5-4.5 1.125-4.5 2.5-4.5 2.5 2 2.5 4.5z"/>
  </g>
  <rect width="20" height="1" x="14" y="29" fill="url(#f)" color="#000" overflow="visible" rx=".5" ry=".5" style="marker:none"/>
  <rect width="20" height="1" x="14" y="30" fill="#fff" color="#000" opacity=".36000001" overflow="visible" rx=".5" ry=".5" style="marker:none"/>
</svg>