<?xml version="1.0" encoding="UTF-8" standalone="no"?><svg xmlns="http://www.w3.org/2000/svg" xmlns:xlink="http://www.w3.org/1999/xlink" width="48" height="48"><defs><linearGradient id="i"><stop offset="0"/><stop offset="1" stop-opacity="0"/></linearGradient><linearGradient id="a"><stop offset="0" stop-opacity="0"/><stop offset=".5"/><stop offset="1" stop-opacity="0"/></linearGradient><linearGradient xlink:href="#a" id="n" x1="302.85715" x2="302.85715" y1="366.64789" y2="609.50507" gradientTransform="matrix(2.77439 0 0 1.9697 -1892.179 -872.8854)" gradientUnits="userSpaceOnUse"/><linearGradient id="h"><stop offset="0" stop-color="#fff"/><stop offset="1" stop-color="#fff" stop-opacity="0"/></linearGradient><linearGradient id="g"><stop offset="0"/><stop offset="1" stop-opacity="0"/></linearGradient><linearGradient id="f"><stop offset="0" stop-color="#859dbc"/><stop offset="1" stop-color="#547299"/></linearGradient><linearGradient id="e"><stop offset="0" stop-color="#fff"/><stop offset="1" stop-color="#fff" stop-opacity="0"/></linearGradient><linearGradient id="d"><stop offset="0" stop-opacity="0"/><stop offset=".5" stop-opacity=".56701028"/><stop offset="1" stop-opacity="0"/></linearGradient><linearGradient id="c"><stop offset="0"/><stop offset="1" stop-opacity="0"/></linearGradient><linearGradient id="b"><stop offset="0" stop-color="#fff"/><stop offset="1" stop-color="#fff" stop-opacity="0"/></linearGradient><linearGradient id="m"><stop offset="0" stop-color="#fff"/><stop offset="1" stop-color="#f8f8f8"/></linearGradient><linearGradient id="k"><stop offset="0" stop-color="#a3a3a3"/><stop offset="1" stop-color="#4c4c4c"/></linearGradient><linearGradient id="l"><stop offset="0" stop-color="#fafafa"/><stop offset="1" stop-color="#bbb"/></linearGradient><linearGradient id="j"><stop offset="0" stop-color="#fff"/><stop offset=".5" stop-color="#fff520" stop-opacity=".89108908"/><stop offset="1" stop-color="#fff300" stop-opacity="0"/></linearGradient><linearGradient xlink:href="#b" id="v" x1="16.8125" x2="16.8125" y1="1.875" y2="4.71875" gradientTransform="matrix(-1.31955 0 0 1.36206 40.38853 -.362057)" gradientUnits="userSpaceOnUse"/><linearGradient xlink:href="#c" id="t" x1="19.452349" x2="19.685436" y1="13.174174" y2="27.095339" gradientTransform="matrix(1.22426 0 0 1.28218 .371569 .264657)" gradientUnits="userSpaceOnUse"/><linearGradient xlink:href="#d" id="w" x1="19" x2="19" y1="9.7738247" y2="15.635596" gradientTransform="matrix(1.31955 0 0 2.13393 -4.476133 -14.64845)" gradientUnits="userSpaceOnUse"/><linearGradient xlink:href="#e" id="x" x1="19.970377" x2="19.970377" y1="6.1167107" y2="2.53125" gradientTransform="matrix(1.31955 0 0 1.28036 -5.745298 .249007)" gradientUnits="userSpaceOnUse"/><linearGradient xlink:href="#f" id="u" x1="18.431311" x2="18.402472" y1="19.119474" y2="4.2702327" gradientTransform="matrix(1.31955 0 0 1.29901 -3.1062 -1.336165)" gradientUnits="userSpaceOnUse"/><linearGradient xlink:href="#g" id="A" x1="14.584077" x2="14.552828" y1="1.6392649" y2="2.4912448" gradientTransform="matrix(1 0 0 1.59421 0 -.790249)" gradientUnits="userSpaceOnUse"/><linearGradient xlink:href="#h" id="z" x1="13.354311" x2="14.075844" y1="1.4866425" y2="2.4017651" gradientTransform="matrix(1 0 0 1.18482 0 -.72788)" gradientUnits="userSpaceOnUse"/><radialGradient xlink:href="#i" id="p" cx="605.71429" cy="486.64789" r="117.14286" fx="605.71429" fy="486.64789" gradientTransform="matrix(-2.77439 0 0 1.9697 112.7623 -872.8854)" gradientUnits="userSpaceOnUse"/><radialGradient xlink:href="#i" id="o" cx="605.71429" cy="486.64789" r="117.14286" fx="605.71429" fy="486.64789" gradientTransform="matrix(2.77439 0 0 1.9697 -1891.633 -872.8854)" gradientUnits="userSpaceOnUse"/><radialGradient xlink:href="#j" id="y" cx="55" cy="125" r="14.375" fx="55" fy="125" gradientUnits="userSpaceOnUse"/><radialGradient xlink:href="#k" id="r" cx="8.824419" cy="3.7561285" r="37.751713" fx="8.824419" fy="3.7561285" gradientTransform="matrix(.96827 0 0 1.03637 3.25 .489522)" gradientUnits="userSpaceOnUse"/><radialGradient xlink:href="#l" id="q" cx="33.966679" cy="35.736916" r="86.70845" fx="33.966679" fy="35.736916" gradientTransform="matrix(.9605 0 0 1.04477 -.103553 -.159183)" gradientUnits="userSpaceOnUse"/><radialGradient xlink:href="#m" id="s" cx="8.1435566" cy="7.2678967" r="38.158695" fx="8.1435566" fy="7.2678967" gradientTransform="matrix(.97303 0 0 1.03494 3.168754 .555277)" gradientUnits="userSpaceOnUse"/></defs><g color="#000" transform="matrix(.02165 0 0 .01486 43.0076 42.68539)"><path fill="url(#n)" d="M-1559.2523-150.69685h1339.6335v478.35718h-1339.6335z" opacity=".40206185" overflow="visible" style="marker:none"/><path fill="url(#o)" d="M-219.61876-150.68038v478.33079c142.874166.90045 345.40022-107.16966 345.40014-239.196175 0-132.026537-159.436816-239.134595-345.40014-239.134615z" opacity=".40206185" overflow="visible" style="marker:none"/><path fill="url(#p)" d="M-1559.2523-150.68038v478.33079c-142.8742.90045-345.4002-107.16966-345.4002-239.196175 0-132.026537 159.4368-239.134595 345.4002-239.134615z" opacity=".40206185" overflow="visible" style="marker:none"/></g><rect width="34.875" height="41.063431" x="6.5" y="3.5" fill="url(#q)" stroke="url(#r)" stroke-linecap="round" stroke-linejoin="round" stroke-width=".99999982" color="#000" display="block" overflow="visible" rx="1.1490486" ry="1.1490481" style="marker:none"/><rect width="32.937012" height="39.02821" x="7.5024552" y="4.5010486" fill="none" stroke="url(#s)" stroke-linecap="round" stroke-linejoin="round" stroke-width=".99999958" color="#000" display="block" overflow="visible" rx=".14904852" ry=".14904849" style="marker:none"/><path fill="none" stroke="#000" stroke-opacity=".01754385" stroke-width=".98855311" d="M11.505723 5.4942766V43.400869"/><path fill="none" stroke="#fff" stroke-opacity=".20467831" d="M12.5 5.0205154V43.038228"/><g fill="#9b9b9b" fill-opacity=".54970759" color="#000"><rect width="20.000006" height="1" x="15.999994" y="9" display="block" overflow="visible" rx=".13778631" ry=".06539088" style="marker:none"/><rect width="20.000006" height="1" x="15.999994" y="11" display="block" overflow="visible" rx=".13778631" ry=".06539088" style="marker:none"/><rect width="20.000006" height="1" x="15.999994" y="13" display="block" overflow="visible" rx=".13778631" ry=".06539088" style="marker:none"/><rect width="20.000006" height="1" x="15.999994" y="15" display="block" overflow="visible" rx=".13778631" ry=".06539088" style="marker:none"/><rect width="20.000006" height="1" x="15.999994" y="17" display="block" overflow="visible" rx=".13778631" ry=".06539088" style="marker:none"/><rect width="20.000006" height="1" x="15.999994" y="19" display="block" overflow="visible" rx=".13778631" ry=".06539088" style="marker:none"/><rect width="20.000006" height="1" x="15.999994" y="21" display="block" overflow="visible" rx=".13778631" ry=".06539088" style="marker:none"/><rect width="20.000006" height="1" x="15.999994" y="23" display="block" overflow="visible" rx=".13778631" ry=".06539088" style="marker:none"/><rect width="9.0000057" height="1" x="15.999986" y="25" display="block" overflow="visible" rx=".06200386" ry=".06539088" style="marker:none"/><rect width="20.000006" height="1" x="15.999986" y="29" display="block" overflow="visible" rx=".13778631" ry=".06539088" style="marker:none"/><rect width="20.000006" height="1" x="15.999986" y="31" display="block" overflow="visible" rx=".13778631" ry=".06539088" style="marker:none"/><rect width="20.000006" height="1" x="15.999986" y="33" display="block" overflow="visible" rx=".13778631" ry=".06539088" style="marker:none"/><rect width="20.000006" height="1" x="15.999986" y="35" display="block" overflow="visible" rx=".13778631" ry=".06539088" style="marker:none"/><rect width="14.000014" height="1" x="15.999986" y="37" display="block" overflow="visible" rx=".09645049" ry=".06539088" style="marker:none"/></g><path fill="url(#t)" fill-rule="evenodd" d="m28.245858 31.324906-7.097989-4.191205L14.30757 30.8838l-.545711-26.9362333h14.787739l-.30374 27.3773393z" opacity=".28021976"/><path fill="url(#u)" fill-rule="evenodd" stroke="#364878" stroke-width=".99999988" d="M12.427339 3.5180202S12.240033.60520607 15.107867.54270607L25.119343.50728624c1.157944 0 1.462545.68373156 1.462545 1.60227266V29.729916l-6.036462-5.196054-5.87108 5.196054-.082691-26.210287-2.164316-.0016088z"/><path fill="url(#v)" fill-rule="evenodd" d="M13.030252 3.0117919c-.019206-.7864299.282666-1.9316612 2.345166-1.9941612L25.027906 1c.613016 0 1.062246.1674319 1.062246.7994802l-.029158 8.6923708H15.317102l-.125-7.4925259-2.16185.0124668z" opacity=".4450549"/><rect width="10.556392" height="12.803556" x="15.317101" y="6.6907959" fill="url(#w)" fill-rule="evenodd" opacity=".28021976" rx=".06200386" ry=".06539088"/><path fill="none" stroke="url(#x)" stroke-opacity=".19125683" stroke-width="1.00000012" d="m24.476832 2.2095507 1.098703.9035883-.02809 24.398772-5.049982-4.308153-4.793379 4.211445-.005003-24.6656412 8.777751-.5400111z"/><path fill="url(#y)" d="M69.375 125a14.375 14.375 0 1 1-28.75 0 14.375 14.375 0 1 1 28.75 0z" color="#000" display="block" style="marker:none" transform="translate(5.632438 -67.28175) scale(.61113)"/><path fill="url(#z)" d="m15.158602 3.9384083-.044195-2.9048905c-2.130501 0-2.12132 1.9345597-2.12132 2.9048905h2.165515z" color="#000" opacity=".48295456" overflow="visible" style="marker:none"/><path fill="url(#A)" d="m15.158602 3.9384086-.044195-2.1136493c-2.298097.0179333-2.12132 2.1136493-2.12132 2.1136493h2.165515z" color="#000" opacity=".35795455" overflow="visible" style="marker:none"/></svg>