<?xml version="1.0" encoding="UTF-8" standalone="no"?>
<svg xmlns="http://www.w3.org/2000/svg" xmlns:xlink="http://www.w3.org/1999/xlink" width="48" height="48">
  <defs>
    <linearGradient id="c">
      <stop offset="0" stop-color="#e5e5e5"/>
      <stop offset="1" stop-color="#dfdfdf"/>
    </linearGradient>
    <linearGradient id="d">
      <stop offset="0"/>
      <stop offset="1" stop-opacity="0"/>
    </linearGradient>
    <linearGradient id="b">
      <stop offset="0" stop-color="#fff"/>
      <stop offset="1" stop-color="#fff" stop-opacity="0"/>
    </linearGradient>
    <linearGradient id="a">
      <stop offset="0" stop-color="#e5e5e5"/>
      <stop offset="1" stop-color="#c8c8c8"/>
    </linearGradient>
    <linearGradient xlink:href="#a" id="f" x1="42.150032" x2="50.871357" y1="23.405266" y2="39.318127" gradientTransform="matrix(.89309 0 0 1.1197 -18.45684 -.381848)" gradientUnits="userSpaceOnUse"/>
    <linearGradient xlink:href="#a" id="g" x1="38.897804" x2="69.181168" y1="32.234478" y2="57.055389" gradientTransform="matrix(.88246 0 0 1.12323 -18.45703 -.304225)" gradientUnits="userSpaceOnUse"/>
    <linearGradient xlink:href="#b" id="h" x1="48" x2="78" y1="18.534204" y2="18.534204" gradientTransform="matrix(1.01572 0 0 1.04774 -38.62402 -6.542519)" gradientUnits="userSpaceOnUse"/>
    <linearGradient xlink:href="#b" id="i" x1="48" x2="78" y1="18.534204" y2="18.534204" gradientTransform="matrix(.96932 .30347 -.31303 .99988 -26.51354 -28.87764)" gradientUnits="userSpaceOnUse"/>
    <linearGradient xlink:href="#a" id="j" x1="35.321308" x2="51.861248" y1="24.984463" y2="41.370472" gradientTransform="matrix(.89309 0 0 1.11971 .123711 -12.57232)" gradientUnits="userSpaceOnUse"/>
    <linearGradient xlink:href="#c" id="k" x1="34.561821" x2="50.808903" y1="17.249048" y2="44.769524" gradientTransform="matrix(.88246 0 0 1.12323 .12316 -12.49411)" gradientUnits="userSpaceOnUse"/>
    <linearGradient xlink:href="#b" id="l" x1="54.287079" x2="68.843483" y1="9.1136208" y2="38.118332" gradientTransform="matrix(.98586 .24445 -.25216 1.01694 -24.58715 -15.18839)" gradientUnits="userSpaceOnUse"/>
    <radialGradient xlink:href="#d" id="e" cx="22.571428" cy="30.857143" r="15.571428" fx="22.571428" fy="30.857143" gradientTransform="matrix(1 0 0 .65138 0 10.75754)" gradientUnits="userSpaceOnUse"/>
  </defs>
  <path fill="url(#e)" d="M38.142857 30.857143a15.571428 10.142858 0 1 1-31.142857 0 15.571428 10.142858 0 1 1 31.142857 0z" color="#000" opacity=".38636364" overflow="visible" style="marker:none" transform="matrix(1.40812 0 0 .49296 -7.856805 28.28872)"/>
  <g transform="rotate(-11.397 .07282033 54.29586532)">
    <g stroke-linecap="round" transform="rotate(15.124 7.64315624 42.4842536)">
      <rect width="30.930361" height="39.032627" x="-1.9805312" y="8.2107315" fill="url(#f)" stroke="#888a85" stroke-width="1.0000017" rx="3.0304639" ry="2.8284323" transform="rotate(-15.12)"/>
      <rect width="28.997335" height="37.150211" x="-1.0130478" y="9.1018763" fill="url(#g)" stroke="#fff" stroke-width="1.0000025" rx="2.2349753" ry="1.9445504" transform="rotate(-15.121) skewX(-.004)"/>
    </g>
    <path fill="url(#h)" fill-rule="evenodd" d="M10.130389 22.794181c12.850496 4.167358 19.23701-5.741693 30.471515 0L38.721929 3.5888283s-.610789-2.1547196-2.015269-1.8968536l-24.457443.2307223c-1.594548-.1411159-1.802687.9659263-1.769823 2.1447151l-.349005 18.7267689z" opacity=".51648355" transform="translate(.176776 7.24784)"/>
    <path fill-rule="evenodd" d="M17.6875 12.28125c-3.55272 3.349394-4.982312 4.273193-5 6.15625-.017191 1.830531 2.293528 3.430896 4.3125 2.28125.064192.93674.094533 2.556064-.46875 3.21875.08839.000001 2.46875.03125 2.46875.03125-.000001.000001-.612443-2.029971-.6875-3.375 2.20939 1.391875 4.357176-.119219 4.375-2.25.019345-2.234183-1.281374-2.946604-5-6.0625z"/>
  </g>
  <g transform="translate(-1 -1.625)">
    <g transform="translate(2.5 2.75)">
      <path fill="url(#i)" fill-rule="evenodd" d="M11.249051 13.68551c11.018461 7.81637 20.073808.268022 29.079725 9.104008l5.175759-18.0114309-1.193915-2.5247004-24.803723-7.853007-2.71711 1.3052014L11.249051 13.68551z" opacity=".51648355" transform="translate(.176776 7.24784)"/>
      <rect width="30.930372" height="39.032639" x="16.600031" y="-3.9797387" fill="url(#j)" stroke="#888a85" stroke-linecap="round" stroke-width="1.0000019" rx="3.0304649" ry="2.8284333" transform="rotate(14.88)"/>
      <rect width="28.997335" height="37.150257" x="17.567137" y="-3.0879984" fill="url(#k)" stroke="#fff" stroke-linecap="round" stroke-width="1.0000031" rx="2.2349749" ry="1.9445531" transform="rotate(14.879) skewX(-.004)"/>
      <path fill="#c00" fill-rule="evenodd" d="M28.219209 18.579429c3.797455-2.229958 7.152043 1.662118 6.355098 4.528404-.728546 2.620283-3.038399 3.349736-9.246485 6.694212-4.022847-5.736724-5.582021-7.228841-4.71991-10.338333.891468-3.219047 5.052686-4.699234 7.611297-.884283z"/>
    </g>
    <path fill="url(#l)" fill-rule="evenodd" d="M15.408724 24.666097c11.469849 7.137567 17.578563-1.915485 27.101027 6.361228l4.521924-17.230164c.265165-.972272-.018193-1.740987-1.432406-2.094541l-23.02252-6.4310693c-1.325825-.3535534-2.456664.5828245-2.633441 1.466708L15.408724 24.666097z" opacity=".51648355"/>
  </g>
</svg>