<?xml version="1.0" encoding="UTF-8" standalone="no"?>
<svg xmlns="http://www.w3.org/2000/svg" xmlns:xlink="http://www.w3.org/1999/xlink" width="48" height="48">
  <defs>
    <linearGradient id="a">
      <stop offset="0" stop-color="#fff"/>
      <stop offset="1" stop-color="#fff" stop-opacity="0"/>
    </linearGradient>
    <linearGradient id="c">
      <stop offset="0" stop-color="#fcaf3e"/>
      <stop offset="1" stop-color="#d37f03"/>
    </linearGradient>
    <linearGradient id="b">
      <stop offset="0" stop-opacity=".32673267"/>
      <stop offset="1" stop-opacity="0"/>
    </linearGradient>
    <linearGradient xlink:href="#a" id="f" x1="26.502604" x2="28.786495" y1="10.027484" y2="52.807446" gradientUnits="userSpaceOnUse"/>
    <radialGradient xlink:href="#b" id="d" cx="14.287618" cy="68.872971" r="11.68987" fx="14.287618" fy="72.568001" gradientTransform="matrix(1.39926 0 0 .51326 4.365074 4.839285)" gradientUnits="userSpaceOnUse"/>
    <radialGradient xlink:href="#c" id="e" cx="24.285801" cy="36.720772" r="20.410614" fx="24.285801" fy="36.720772" gradientTransform="translate(-17.67698 -26.72805) scale(1.72787)" gradientUnits="userSpaceOnUse"/>
  </defs>
  <path fill="url(#d)" fill-rule="evenodd" d="M44.285715 38.714287a19.928572 9.837245 0 1 1-39.8571433 0 19.928572 9.837245 0 1 1 39.8571433 0z" color="#000" overflow="visible" style="marker:none" transform="translate(-4.539687 -7.794678) scale(1.18638)"/>
  <path fill="url(#e)" stroke="#f57900" stroke-linecap="round" stroke-linejoin="round" d="M24.285801 43.196358 4.3751874 23.285744 24.285801 3.3751291 44.196415 23.285744 24.285801 43.196358h0z"/>
  <path fill="#fff" d="m39.439932 19.376677-.73845 1.024184c-.636749-.268492-1.300618-.485069-1.986183-.644885l.005812-1.576858c-.427728-.088335-.86301-.156136-1.304105-.204371l-.481774 1.501889c-.344041-.028477-.691764-.044167-1.043361-.044167-.351209 0-.699124.015497-1.043166.044167l-.481776-1.501889c-.441287.048235-.876375.116036-1.304103.204371l.006005 1.577051c-.685758.159623-1.349433.3762-1.986182.644692l-.92248-1.279502c-.402352.182094-.794242.382591-1.174895.600522l.492817 1.498016c-.59723.36225-1.161723.773319-1.687471 1.227972l-1.272141-.931779c-.325638.296581-.637329.608272-.933716.93391l.931585 1.271947c-.454847.525748-.865916 1.090047-1.228166 1.687665l-1.498016-.493011c-.217931.380848-.418622.772932-.600328 1.175088l1.279308.922287c-.268492.636749-.485069 1.300618-.645079 1.986376l-1.576663-.005811c-.088335.427727-.156137.86301-.204178 1.304298l1.501695.481774c-.028864.343848-.044167.691764-.044167 1.043167 0 .351403.015691.699125.044167 1.043361l-1.501695.481774c.047847.441094.116037.876183.203984 1.304104l1.577051-.006005c.159816.685759.376393 1.349627.644691 1.986181l-1.279308.922289c.181707.402351.382591.794241.600135 1.175089l1.498209-.493011c.362251.597425.773319 1.161723 1.227973 1.687277l-.931586 1.272141c.278372.30588.571078.598005.875408.87812l18.838994-18.839189-1.006942-1.006942-.298712.218706c-.525748-.454653-1.090046-.865722-1.687469-1.227972l.241952-.735157-1.108062-1.108062.000388.000193zm-19.523203-5.045944c0 6.484682-4.233883 11.979469-10.0872397 13.874023l2.2269717 2.227167c.016854-.006975.033899-.01298.050559-.020147l.181513.251832 1.412004 1.412004c.463179-.2189.91667-.45446 1.359315-.707648l-.694089-2.109193c.841314-.509669 1.635748-1.08869 2.375747-1.728732l1.79111 1.311659c.458721-.41746.897297-.856036 1.314564-1.314565l-1.311466-1.790914c.640042-.740195 1.218869-1.534628 1.728732-2.375748l2.109387.694089c.306654-.536403.589093-1.088304.844994-1.654732l-1.801182-1.298293c.377942-.896329.682852-1.831014.907758-2.796501l2.219999.008524c.124172-.602266.219869-1.215188.287476-1.836051l-2.114423-.678398c.040293-.484293.061991-.97401.061991-1.46857 0-.494753-.021698-.98447-.061991-1.468763l2.114423-.677816c-.067607-.621251-.163304-1.233979-.28767-1.836246l-2.219805.00833c-.224906-.9654877-.529816-1.9001727-.907758-2.7965027l1.801182-1.298486c-.142383-.31479-.293869-.624931-.452136-.930423l-3.804023 3.803636c.616019 1.6142457.95425 3.3658377.95425 5.1962707l-.000193.000194z" opacity=".5"/>
  <path fill="none" stroke="url(#f)" d="M24.285792 41.605353 5.9661763 23.285736 24.285792 4.9661187 42.605409 23.285736 24.285792 41.605353z" opacity=".47252747"/>
</svg>