<?xml version="1.0" encoding="UTF-8" standalone="no"?>
<svg xmlns="http://www.w3.org/2000/svg" xmlns:xlink="http://www.w3.org/1999/xlink" width="48" height="48">
  <defs>
    <linearGradient id="d">
      <stop offset="0" stop-color="#fff" stop-opacity=".43877551"/>
      <stop offset=".5" stop-color="#fff"/>
      <stop offset="1" stop-color="#fff" stop-opacity="0"/>
    </linearGradient>
    <linearGradient id="c">
      <stop offset="0" stop-color="#75507b"/>
      <stop offset=".25709054" stop-color="#a984af"/>
      <stop offset=".5655992" stop-color="#513755"/>
      <stop offset="1" stop-color="#875c8e"/>
    </linearGradient>
    <linearGradient id="b">
      <stop offset="0" stop-color="#73d216"/>
      <stop offset=".25568181" stop-color="#9ced4b"/>
      <stop offset=".59400827" stop-color="#64b813"/>
      <stop offset="1" stop-color="#8eea34"/>
    </linearGradient>
    <linearGradient id="e">
      <stop offset="0"/>
      <stop offset="1" stop-opacity="0"/>
    </linearGradient>
    <linearGradient id="a">
      <stop offset="0" stop-opacity="0"/>
      <stop offset=".5"/>
      <stop offset="1" stop-opacity="0"/>
    </linearGradient>
    <linearGradient xlink:href="#a" id="i" x1="302.85715" x2="302.85715" y1="366.64789" y2="609.50507" gradientTransform="matrix(2.77439 0 0 1.9697 -1892.179 -872.8854)" gradientUnits="userSpaceOnUse"/>
    <linearGradient xlink:href="#a" id="f" x1="302.85715" x2="302.85715" y1="366.64789" y2="609.50507" gradientTransform="matrix(2.77439 0 0 1.9697 -1892.179 -872.8854)" gradientUnits="userSpaceOnUse"/>
    <linearGradient xlink:href="#b" id="n" x1="10.029842" x2="46.026698" y1="28.695923" y2="28.695923" gradientUnits="userSpaceOnUse"/>
    <linearGradient xlink:href="#c" id="l" x1="3.1234348" x2="39.12029" y1="17.789515" y2="17.789515" gradientUnits="userSpaceOnUse"/>
    <linearGradient xlink:href="#d" id="o" x1="10.964451" x2="36.336609" y1="28.712873" y2="27.445059" gradientUnits="userSpaceOnUse"/>
    <linearGradient xlink:href="#d" id="m" x1="4.1213179" x2="33.066338" y1="24.253414" y2="25.661276" gradientUnits="userSpaceOnUse"/>
    <radialGradient xlink:href="#e" id="k" cx="605.71429" cy="486.64789" r="117.14286" fx="605.71429" fy="486.64789" gradientTransform="matrix(-2.77439 0 0 1.9697 112.7623 -872.8854)" gradientUnits="userSpaceOnUse"/>
    <radialGradient xlink:href="#e" id="j" cx="605.71429" cy="486.64789" r="117.14286" fx="605.71429" fy="486.64789" gradientTransform="matrix(2.77439 0 0 1.9697 -1891.633 -872.8854)" gradientUnits="userSpaceOnUse"/>
    <radialGradient xlink:href="#e" id="g" cx="605.71429" cy="486.64789" r="117.14286" fx="605.71429" fy="486.64789" gradientTransform="matrix(2.77439 0 0 1.9697 -1891.633 -872.8854)" gradientUnits="userSpaceOnUse"/>
    <radialGradient xlink:href="#e" id="h" cx="605.71429" cy="486.64789" r="117.14286" fx="605.71429" fy="486.64789" gradientTransform="matrix(-2.77439 0 0 1.9697 112.7623 -872.8854)" gradientUnits="userSpaceOnUse"/>
  </defs>
  <g color="#000">
    <path fill="url(#f)" d="M-1559.2523-150.69685h1339.6335v478.35718h-1339.6335z" opacity=".40206185" overflow="visible" style="marker:none" transform="matrix(.01971 0 0 .03343 38.92492 24.71253)"/>
    <path fill="url(#g)" d="M-219.61876-150.68038v478.33079c142.874166.90045 345.40022-107.16966 345.40014-239.196175 0-132.026537-159.436816-239.134595-345.40014-239.134615z" opacity=".40206185" overflow="visible" style="marker:none" transform="matrix(.01971 0 0 .03343 38.92492 24.71253)"/>
    <path fill="url(#h)" d="M-1559.2523-150.68038v478.33079c-142.8742.90045-345.4002-107.16966-345.4002-239.196175 0-132.026537 159.4368-239.134595 345.4002-239.134615z" opacity=".40206185" overflow="visible" style="marker:none" transform="matrix(.01971 0 0 .03343 38.92492 24.71253)"/>
    <path fill="url(#i)" d="M-1559.2523-150.69685h1339.6335v478.35718h-1339.6335z" opacity=".40206185" overflow="visible" style="marker:none" transform="matrix(.01971 0 0 .03343 46.17276 35.14236)"/>
    <path fill="url(#j)" d="M-219.61876-150.68038v478.33079c142.874166.90045 345.40022-107.16966 345.40014-239.196175 0-132.026537-159.436816-239.134595-345.40014-239.134615z" opacity=".40206185" overflow="visible" style="marker:none" transform="matrix(.01971 0 0 .03343 46.17276 35.14236)"/>
    <path fill="url(#k)" d="M-1559.2523-150.68038v478.33079c-142.8742.90045-345.4002-107.16966-345.4002-239.196175 0-132.026537 159.4368-239.134595 345.4002-239.134615z" opacity=".40206185" overflow="visible" style="marker:none" transform="matrix(.01971 0 0 .03343 46.17276 35.14236)"/>
    <path fill="url(#l)" fill-rule="evenodd" stroke="#5c3566" stroke-width=".9999994" d="M3.6234345 6.1923115c9.1823425-6.5407377 25.6412605 1.9445437 34.9968555 0V31.294603c-9.009091 3.005204-24.60175-6.363961-34.9968555 0V6.1923115z" display="block" overflow="visible" style="marker:none"/>
    <path fill="none" stroke="url(#m)" stroke-width=".99999988" d="M4.6213179 6.8032613c7.9771481-5.728237 23.8335951 1.944544 33.0355491.5l-.125 23.2897917c-6.814844 2.192704-22.737708-5.704436-32.8480491-1.125l-.0625-22.6647917z" display="block" opacity=".62921346" overflow="visible" style="marker:none"/>
    <path fill="url(#n)" fill-rule="evenodd" stroke="#4e9a06" stroke-width=".9999994" d="M10.529842 17.09872c9.182343-6.540738 25.641261 1.944543 34.996856 0v25.102291c-9.009091 3.005204-24.60175-6.363961-34.996856 0V17.09872z" display="block" overflow="visible" style="marker:none"/>
    <path fill="none" stroke="url(#o)" stroke-width=".99999988" d="M11.464451 17.654135c7.977148-5.728237 23.833595 1.944544 33.035549.5l-.125 23.37818c-6.814844 2.192704-22.737708-5.704436-32.848049-1.125l-.0625-22.75318z" display="block" opacity=".62921346" overflow="visible" style="marker:none"/>
  </g>
</svg>