<svg xmlns="http://www.w3.org/2000/svg" xmlns:xlink="http://www.w3.org/1999/xlink" viewBox="1.9 3.02 47.34 45.63"><defs><linearGradient id="c"><stop offset="0"/><stop offset="1" stop-opacity="0"/></linearGradient><linearGradient id="a"><stop offset="0" stop-opacity="0"/><stop offset=".5"/><stop offset="1" stop-opacity="0"/></linearGradient><linearGradient xlink:href="#a" id="f" x1="302.857" x2="302.857" y1="366.648" y2="609.505" gradientTransform="matrix(2.77439 0 0 1.9697 -1892.179 -872.885)" gradientUnits="userSpaceOnUse"/><linearGradient id="b"><stop offset="0" stop-color="#c9c9c9"/><stop offset=".25" stop-color="#f8f8f8"/><stop offset=".5" stop-color="#e2e2e2"/><stop offset=".75" stop-color="#b0b0b0"/><stop offset="1" stop-color="#c9c9c9"/></linearGradient><linearGradient xlink:href="#b" id="k" x1="14.463" x2="34.534" y1="12.285" y2="39.685" gradientTransform="translate(-5.028 -7.209)scale(1.24194)" gradientUnits="userSpaceOnUse"/><linearGradient id="d"><stop offset="0"/><stop offset="1" stop-opacity="0"/></linearGradient><linearGradient id="e"><stop offset="0" stop-color="#9cbcde"/><stop offset="1" stop-color="#204a87"/></linearGradient><radialGradient xlink:href="#c" id="h" cx="605.714" cy="486.648" r="117.143" fx="605.714" fy="486.648" gradientTransform="matrix(-2.77439 0 0 1.9697 112.762 -872.885)" gradientUnits="userSpaceOnUse"/><radialGradient xlink:href="#c" id="g" cx="605.714" cy="486.648" r="117.143" fx="605.714" fy="486.648" gradientTransform="matrix(2.77439 0 0 1.9697 -1891.633 -872.885)" gradientUnits="userSpaceOnUse"/><radialGradient xlink:href="#d" id="j" cx="25.456" cy="39.161" r="19.622" fx="25.456" fy="39.161" gradientTransform="matrix(1 0 0 .31532 0 26.813)" gradientUnits="userSpaceOnUse"/><radialGradient xlink:href="#e" id="i" cx="25.458" cy="35.596" r="20.531" fx="25.458" fy="35.596" gradientTransform="matrix(2.12819 0 0 2.12825 -29.02 -39.918)" gradientUnits="userSpaceOnUse"/></defs><g color="#000"><path fill="url(#f)" d="M-1559.252-150.697H-219.62V327.66h-1339.633z" opacity=".402" overflow="visible" style="marker:none" transform="matrix(.02207 0 0 .0253 43.933 39.574)"/><path fill="url(#g)" d="M-219.619-150.68v478.33c142.874.9 345.4-107.17 345.4-239.196S-33.655-150.68-219.619-150.68" opacity=".402" overflow="visible" style="marker:none" transform="matrix(.02207 0 0 .0253 43.933 39.574)"/><path fill="url(#h)" d="M-1559.252-150.68v478.33c-142.875.9-345.4-107.17-345.4-239.196s159.436-239.134 345.4-239.134" opacity=".402" overflow="visible" style="marker:none" transform="matrix(.02207 0 0 .0253 43.933 39.574)"/></g><rect width="40.062" height="40.062" x="4.415" y="3.523" fill="url(#i)" fill-rule="evenodd" stroke="#3465a4" stroke-linejoin="bevel" stroke-miterlimit="10" color="#000" overflow="visible" rx="5.455" ry="5.455" style="marker:none"/><rect width="37.101" height="37.101" x="5.895" y="5.004" fill="none" stroke="#fff" stroke-linejoin="bevel" stroke-miterlimit="10" stroke-width="2" color="#000" overflow="visible" rx="3.907" ry="3.907" style="marker:none"/><path fill="#fff" d="M20.857 13.071a3.214 3.214 0 1 1-6.428 0 3.214 3.214 0 1 1 6.428 0" color="#000" overflow="visible" style="marker:none" transform="translate(2.366 -.532)scale(1.1111)"/><path fill="none" stroke="#fff" stroke-width="1.923" d="m21.914 14.047 1.869 12.967 9.23-1.978 1.869 7.363 2.747-.77"/><path fill="#fff" d="M17.375 21.668C14.822 23.078 13 25.695 13 28.808c0 4.554 3.715 8.269 8.27 8.269 4.315 0 7.763-3.371 8.124-7.596l-1.995.456c-.547 2.951-3.017 5.217-6.13 5.217a6.335 6.335 0 0 1-6.346-6.346c0-2.196 1.197-4.03 2.885-5.169z" color="#000" overflow="visible" style="marker:none" transform="translate(1.552 -.64)"/><path fill="none" stroke="#fff" stroke-width="1.923" d="M22.857 20.857 31.714 20" color="#000" overflow="visible" style="marker:none"/><g color="#000"><path fill="url(#j)" d="M45.078 39.161a19.622 6.187 0 1 1-39.244 0 19.622 6.187 0 1 1 39.244 0" opacity=".409" overflow="visible" style="marker:none" transform="translate(19.618 21.07)scale(.60821)"/><path fill="url(#k)" stroke="gray" stroke-width="1.644" d="M23.25.469c-.465.032-.918.104-1.375.156h-.031L20.75 6.594a16.3 16.3 0 0 0-4.969 2.031l-4.906-3.531a22.4 22.4 0 0 0-3.594 3.531l3.407 4.969a16.5 16.5 0 0 0-2.25 5.281v.031l-5.938.938a23 23 0 0 0-.156 2.718c0 .75.02 1.49.094 2.22l5.937 1.062a16.3 16.3 0 0 0 2.344 5.687l-3.531 4.844a22.4 22.4 0 0 0 3.437 3.406l5-3.437a16.1 16.1 0 0 0 5.813 2.281l.937 5.906c.666.06 1.35.063 2.031.063.963 0 1.882-.037 2.813-.157l1.125-6.03a16.4 16.4 0 0 0 5.531-2.532l4.813 3.5a22.4 22.4 0 0 0 3.374-3.594l-3.5-5.062a16.2 16.2 0 0 0 1.938-5.375l5.906-.938c.052-.616.063-1.214.063-1.843 0-1.095-.127-2.168-.282-3.22l-6-1.093a16.3 16.3 0 0 0-2.218-4.812L41.5 8.593a22.4 22.4 0 0 0-3.719-3.625l-5.093 3.5c-1.464-.866-3.04-1.53-4.75-1.906L27 .625a22 22 0 0 0-2.594-.156c-.238 0-.482-.008-.718 0-.116.003-.23-.007-.344 0-.031.002-.063-.002-.094 0zm.813 15.187c.114-.006.228 0 .343 0 3.7 0 6.719 3.02 6.719 6.719s-3.02 6.688-6.719 6.688a6.68 6.68 0 0 1-6.687-6.688c0-3.584 2.804-6.54 6.343-6.719z" overflow="visible" style="marker:none" transform="translate(20.156 19.565)scale(.60821)"/><path fill="none" stroke="#fff" stroke-width="2.46" d="M36.24 23.782a12.728 12.728 0 1 1-25.457 0 12.728 12.728 0 1 1 25.456 0z" opacity=".648" overflow="visible" style="marker:none" transform="translate(25.444 23.496)scale(.40655)"/><path fill="none" stroke="#fff" stroke-width="1.644" d="m22.663 2.83-.828 5.453c-1.577.359-4.478 1.457-5.812 2.285l-4.409-3.29c-1.173.91-1.253.972-2.191 2.123l3.187 4.727c-.915 1.398-2.013 3.89-2.408 5.67l-5.586.941c-.096.784-.05 2.463.015 3.109l5.336.96c.373 1.825 1.77 4.76 2.76 6.264L9.355 35.53c.894 1.11 1.073 1.212 2.187 2.103l4.511-3.305c1.546.986 4.614 2.185 6.484 2.525l.74 5.385c.59.054 2.218.204 3.04.098l.83-5.605c1.775-.442 4.843-1.701 6.292-2.732l4.506 3.256c1.104-.939 1.114-1.08 1.986-2.24l-3.34-4.747c.839-1.448 1.923-4.28 2.217-5.989l5.468-.907c.046-.545.048-2.065-.088-2.996l-5.571-.96c-.416-1.537-1.843-4.304-2.707-5.592l3.54-4.458c-.968-1.184-1.328-1.346-2.544-2.275l-4.664 3.34c-1.295-.766-3.877-1.933-5.39-2.266l-.824-5.336c-.755-.088-2.932-.049-3.364 0z" opacity=".347" overflow="visible" style="marker:none" transform="translate(20.156 19.565)scale(.60821)"/></g></svg>