<?xml version="1.0" encoding="UTF-8" standalone="no"?>
<svg xmlns="http://www.w3.org/2000/svg" xmlns:xlink="http://www.w3.org/1999/xlink" width="48" height="48">
  <defs>
    <linearGradient id="b">
      <stop offset="0"/>
      <stop offset="1" stop-opacity="0"/>
    </linearGradient>
    <linearGradient id="a">
      <stop offset="0" stop-opacity="0"/>
      <stop offset=".5"/>
      <stop offset="1" stop-opacity="0"/>
    </linearGradient>
    <linearGradient xlink:href="#a" id="d" x1="302.85715" x2="302.85715" y1="366.64789" y2="609.50507" gradientTransform="matrix(2.77439 0 0 1.9697 -1892.179 -872.8854)" gradientUnits="userSpaceOnUse"/>
    <linearGradient id="c">
      <stop offset="0" stop-color="#9cbcde"/>
      <stop offset="1" stop-color="#204a87"/>
    </linearGradient>
    <radialGradient xlink:href="#b" id="f" cx="605.71429" cy="486.64789" r="117.14286" fx="605.71429" fy="486.64789" gradientTransform="matrix(-2.77439 0 0 1.9697 112.7623 -872.8854)" gradientUnits="userSpaceOnUse"/>
    <radialGradient xlink:href="#b" id="e" cx="605.71429" cy="486.64789" r="117.14286" fx="605.71429" fy="486.64789" gradientTransform="matrix(2.77439 0 0 1.9697 -1891.633 -872.8854)" gradientUnits="userSpaceOnUse"/>
    <radialGradient xlink:href="#c" id="g" cx="25.457863" cy="35.596233" r="20.530962" fx="25.457863" fy="35.596233" gradientTransform="matrix(2.12819 0 0 2.12825 -29.01906 -39.91779)" gradientUnits="userSpaceOnUse"/>
  </defs>
  <g color="#000">
    <path fill="url(#d)" d="M-1559.2523-150.69685h1339.6335v478.35718h-1339.6335z" opacity=".40206185" overflow="visible" style="marker:none" transform="matrix(.02299 0 0 .02345 45.3408 39.64914)"/>
    <path fill="url(#e)" d="M-219.61876-150.68038v478.33079c142.874166.90045 345.40022-107.16966 345.40014-239.196175 0-132.026537-159.436816-239.134595-345.40014-239.134615z" opacity=".40206185" overflow="visible" style="marker:none" transform="matrix(.02299 0 0 .02345 45.3408 39.64914)"/>
    <path fill="url(#f)" d="M-1559.2523-150.68038v478.33079c-142.8742.90045-345.4002-107.16966-345.4002-239.196175 0-132.026537 159.4368-239.134595 345.4002-239.134615z" opacity=".40206185" overflow="visible" style="marker:none" transform="matrix(.02299 0 0 .02345 45.3408 39.64914)"/>
  </g>
  <rect width="40.061924" height="40.061924" x="4.4147282" y="3.5233452" fill="url(#g)" fill-rule="evenodd" stroke="#3465a4" stroke-linejoin="bevel" stroke-miterlimit="10" color="#000" overflow="visible" rx="5.454824" ry="5.454824" style="marker:none"/>
  <rect width="37.100636" height="37.100636" x="5.8954034" y="5.0040197" fill="none" stroke="#fff" stroke-linejoin="bevel" stroke-miterlimit="10" stroke-width="2.00000215" color="#000" overflow="visible" rx="3.9067502" ry="3.9067502" style="marker:none"/>
  <path fill="#fff" d="M20.857142 13.071428a3.2142856 3.2142856 0 1 1-6.428571 0 3.2142856 3.2142856 0 1 1 6.428571 0z" color="#000" overflow="visible" style="marker:none" transform="translate(2.36660334 -.53205042) scale(1.11111)"/>
  <path fill="none" stroke="#fff" stroke-width="1.923075" d="M21.9148369 14.04670703 23.782969 27.013744l9.230772-1.9780229 1.8681321 7.3626399 2.7472539-.769231"/>
  <path fill="#fff" d="M17.374999 21.668259C14.821727 23.078575 13 25.694617 13 28.807681c0 4.554099 3.715131 8.26923 8.26923 8.26923 4.315609 0 7.763741-3.371288 8.124999-7.596153l-1.995192.45673c-.547507 2.950595-3.016835 5.216346-6.129807 5.216346-3.513593 0-6.346153-2.83256-6.346153-6.346153 0-2.195996 1.196953-4.029605 2.884615-5.168269l-.432693-1.971153z" color="#000" overflow="visible" style="marker:none" transform="translate(1.552191 -.6401)"/>
  <path fill="none" stroke="#fff" stroke-width="1.9230775" d="M22.857143 20.857143 31.714286 20" color="#000" overflow="visible" style="marker:none"/>
</svg>