<?xml version="1.0" encoding="UTF-8" standalone="no"?>
<svg xmlns="http://www.w3.org/2000/svg" xmlns:xlink="http://www.w3.org/1999/xlink" width="48" height="48">
  <defs>
    <linearGradient id="d">
      <stop offset="0"/>
      <stop offset="1" stop-opacity="0"/>
    </linearGradient>
    <linearGradient id="a">
      <stop offset="0" stop-opacity="0"/>
      <stop offset=".5"/>
      <stop offset="1" stop-opacity="0"/>
    </linearGradient>
    <linearGradient xlink:href="#a" id="f" x1="302.85715" x2="302.85715" y1="366.64789" y2="609.50507" gradientTransform="matrix(2.77439 0 0 1.9697 -1892.179 -872.8854)" gradientUnits="userSpaceOnUse"/>
    <linearGradient id="c">
      <stop offset="0" stop-color="#fff" stop-opacity="0"/>
      <stop offset=".5" stop-color="#fff"/>
      <stop offset="1" stop-color="#fff" stop-opacity="0"/>
    </linearGradient>
    <linearGradient id="b">
      <stop offset="0" stop-color="#eeeeec"/>
      <stop offset="1" stop-color="#fff"/>
    </linearGradient>
    <linearGradient id="e">
      <stop offset="0" stop-color="#f2f4f1"/>
      <stop offset="1" stop-color="#d3d7cf"/>
    </linearGradient>
    <linearGradient xlink:href="#b" id="j" x1="24.095442" x2="24.095442" y1="12.595438" y2="34.09544" gradientTransform="translate(-47.94311 1.037934) scale(.99368)" gradientUnits="userSpaceOnUse"/>
    <linearGradient xlink:href="#c" id="l" x1="8.1168785" x2="9.0674801" y1="7.9334393" y2="6.7843909" gradientUnits="userSpaceOnUse"/>
    <linearGradient xlink:href="#c" id="k" x1="38.292995" x2="39.4375" y1="6.7174492" y2="8.161993" gradientUnits="userSpaceOnUse"/>
    <radialGradient xlink:href="#d" id="h" cx="605.71429" cy="486.64789" r="117.14286" fx="605.71429" fy="486.64789" gradientTransform="matrix(-2.77439 0 0 1.9697 112.7623 -872.8854)" gradientUnits="userSpaceOnUse"/>
    <radialGradient xlink:href="#d" id="g" cx="605.71429" cy="486.64789" r="117.14286" fx="605.71429" fy="486.64789" gradientTransform="matrix(2.77439 0 0 1.9697 -1891.633 -872.8854)" gradientUnits="userSpaceOnUse"/>
    <radialGradient xlink:href="#e" id="i" cx="24.500004" cy="29.500004" r="15.095438" fx="24.500004" fy="29.500004" gradientTransform="translate(-76.77594 -33.5971) scale(2.15412)" gradientUnits="userSpaceOnUse"/>
  </defs>
  <g color="#000" transform="matrix(.02171 0 0 .02453 43.18739 37.9549)">
    <path fill="url(#f)" d="M-1559.2523-150.69685h1339.6335v478.35718h-1339.6335z" opacity=".40206185" overflow="visible" style="marker:none"/>
    <path fill="url(#g)" d="M-219.61876-150.68038v478.33079c142.874166.90045 345.40022-107.16966 345.40014-239.196175 0-132.026537-159.436816-239.134595-345.40014-239.134615z" opacity=".40206185" overflow="visible" style="marker:none"/>
    <path fill="url(#h)" d="M-1559.2523-150.68038v478.33079c-142.8742.90045-345.4002-107.16966-345.4002-239.196175 0-132.026537 159.4368-239.134595 345.4002-239.134615z" opacity=".40206185" overflow="visible" style="marker:none"/>
  </g>
  <rect width="37.00507" height="37.959873" x="5.5074925" y="4.5200701" fill="#d3d7cf" stroke="#888a85" stroke-width=".99999988" color="#000" display="block" overflow="visible" rx="4.5342813" ry="4.6512747" style="marker:none"/>
  <rect width="29.00633" height="29.00633" x="-38.503174" y="7.4968405" fill="url(#i)" stroke="url(#j)" stroke-width="1.00000012" color="#000" display="block" overflow="visible" rx="3.5541852" ry="3.5541852" style="marker:none" transform="scale(-1 1)"/>
  <path d="M32.442896 30.089809h-2.098273v-1.373612c-.836432 1.110427-1.939647 1.66564-3.309648 1.66564-1.096008 0-1.96488-.295633-2.606618-.886899-.63453-.598475-.951795-1.395242-.951794-2.390301-.000001-.677789.129789-1.265449.389371-1.762982.266789-.497524.663369-.901315 1.189742-1.211375.533579-.310047 1.225792-.519154 2.076642-.627318l3.212305-.432634c-.000008-.850838-.180272-1.488973-.540792-1.914404-.353324-.425414-.8833-.638125-1.589929-.638135-.58406.00001-1.207773.111773-1.871141.335291-.656164.223537-1.243824.548012-1.762982.973426v-2.130721c1.348372-.677782 2.617429-1.016678 3.807177-1.016689 1.312315.000011 2.314582.364144 3.006804 1.0924.699415.728276 1.049127 1.759386 1.049136 3.093331v7.224982m-2.098273-4.18573v-1.265454c-1.802646.230743-2.819334.364138-3.050068.400186-.223531.036058-.501138.12619-.832819.270396-.324479.144216-.555217.335296-.692214.57324-.129793.237952-.194688.584059-.194685 1.038321-.000003.511952.180261.930164.540792 1.254637.367735.317267.847236.475899 1.438507.475897.735471.000002 1.384421-.263183 1.946851-.789556.562417-.526368.843628-1.178923.843636-1.957667m.908531-12.157007-2.909462 3.547596h-1.438507l2.347038-3.547596h2.000931" font-family="Segoe" font-size="22.15084457" font-weight="400" style="line-height:100%"/>
  <rect width="35.105415" height="36.011204" x="6.4573174" y="5.4944024" fill="none" stroke="#fff" stroke-width=".99999982" color="#000" display="block" opacity=".48888891" overflow="visible" rx="3.5375013" ry="3.5375013" style="marker:none"/>
  <path fill="#fff" d="M5.9375 38.5C6 39.625 7.25 41.4375 8.75 41.8125l2.1875-5.5L10 35.625 5.9375 38.5zm36.125 0C42 39.625 40.75 41.4375 39.25 41.8125l-2.1875-5.5L38 35.625l4.0625 2.875z" color="#000" display="block" opacity=".48888891" overflow="visible" style="marker:none"/>
  <path fill="url(#k)" d="M41.5 7.125c-.4375-.5625-1.1875-1.625-2.1875-1.9375L37.375 7.75l.9375 1L41.5 7.125z" color="#000" display="block" overflow="visible" style="marker:none"/>
  <path fill="url(#l)" d="M6.4375 7.125c.4375-.5625 1.125-1.5625 2.125-1.875l1.875 2.6875-.6875 1L6.4375 7.125z" color="#000" display="block" overflow="visible" style="marker:none"/>
</svg>